<?xml version="1.0" standalone="no"?>
<!DOCTYPE svg PUBLIC "-//W3C//DTD SVG 20010904//EN"
 "http://www.w3.org/TR/2001/REC-SVG-20010904/DTD/svg10.dtd">
<svg version="1.0" xmlns="http://www.w3.org/2000/svg"
 width="260.000000pt" height="260.000000pt" viewBox="0 0 260.000000 260.000000"
 preserveAspectRatio="xMidYMid meet">
<metadata>
Created by potrace 1.11, written by Peter Selinger 2001-2013
</metadata>
<g transform="translate(0.000000,260.000000) scale(0.100000,-0.100000)"
fill="#000000" stroke="none">
<path d="M1130 2505 c-238 -38 -485 -159 -664 -326 -166 -155 -298 -379 -358
-604 -28 -110 -31 -134 -32 -285 -1 -171 12 -263 54 -386 24 -68 72 -176 76
-171 2 2 -3 26 -11 53 -43 141 -58 373 -35 534 56 397 321 751 685 920 50 23
142 56 205 72 104 28 130 31 270 31 261 1 469 -60 674 -198 275 -185 469 -494
516 -825 23 -161 8 -392 -35 -534 -8 -27 -13 -51 -11 -53 6 -6 63 130 84 202
38 130 46 190 46 340 1 218 -28 343 -129 550 -238 488 -784 766 -1335 680z"/>
<path d="M1182 2208 c-266 -22 -533 -166 -705 -379 -83 -101 -177 -287 -207
-406 -63 -254 -37 -533 70 -743 11 -22 20 -43 20 -48 0 -5 -78 -50 -173 -101
-94 -51 -176 -97 -181 -101 -10 -9 44 -110 59 -110 6 0 251 130 545 288 l535
288 3 -273 c2 -218 5 -275 16 -279 7 -3 264 173 570 391 306 218 562 398 569
401 7 2 25 -16 40 -41 16 -25 33 -45 37 -45 11 0 112 259 108 278 -3 13 -27
15 -148 13 -80 -1 -147 -5 -150 -7 -2 -3 5 -23 18 -44 l22 -39 -382 -272
c-211 -150 -420 -298 -465 -331 -44 -32 -86 -58 -92 -58 -8 0 -11 78 -11 260
0 149 -4 260 -9 260 -5 0 -184 -94 -398 -210 -342 -184 -389 -207 -400 -193
-17 23 -69 186 -83 263 -27 144 -9 371 39 513 66 191 207 385 370 507 122 93
301 173 452 204 82 16 46 24 -69 14z"/>
<path d="M1670 1484 l0 -566 28 19 c16 10 76 52 135 93 l106 75 -2 470 -2 470
-132 3 -133 3 0 -567z"/>
<path d="M940 1737 c0 -90 -3 -293 -7 -450 -5 -219 -3 -287 6 -287 6 0 71 32
143 72 l131 71 -6 165 c-4 91 -7 261 -7 379 l0 213 -130 0 -130 0 0 -163z"/>
<path d="M580 1229 l0 -430 93 50 c50 27 111 60 134 73 l43 23 0 358 0 357
-135 0 -135 0 0 -431z"/>
<path d="M1290 1323 c0 -149 1 -158 23 -181 21 -23 22 -31 25 -242 l3 -219
109 77 109 77 1 323 0 322 -135 0 -135 0 0 -157z"/>
<path d="M517 494 l-48 -25 45 -52 c166 -194 479 -338 731 -336 l80 1 -70 15
c-234 49 -448 169 -600 336 -36 39 -65 75 -65 79 0 14 -23 8 -73 -18z"/>
</g>
</svg>
